<mxfile host="app.diagrams.net" agent="Mozilla/5.0 (Macintosh; Intel Mac OS X 10_15_7) AppleWebKit/537.36 (KHTML, like Gecko) Chrome/133.0.0.0 Safari/537.36" version="26.2.1">
  <diagram name="第 1 页" id="U8E1siY5-hy3VOSZTlqo">
    <mxGraphModel dx="1428" dy="800" grid="1" gridSize="10" guides="1" tooltips="1" connect="1" arrows="1" fold="1" page="1" pageScale="1" pageWidth="827" pageHeight="1169" math="0" shadow="0">
      <root>
        <mxCell id="0" />
        <mxCell id="1" parent="0" />
        <mxCell id="KjIWWHUG4eaPtEWHL_3b-3" style="edgeStyle=orthogonalEdgeStyle;rounded=0;orthogonalLoop=1;jettySize=auto;html=1;exitX=0.5;exitY=1;exitDx=0;exitDy=0;entryX=0.5;entryY=0;entryDx=0;entryDy=0;endArrow=none;startFill=0;" edge="1" parent="1" source="XyP67wRyitUUYMVRdNso-2" target="XyP67wRyitUUYMVRdNso-8">
          <mxGeometry relative="1" as="geometry" />
        </mxCell>
        <mxCell id="XyP67wRyitUUYMVRdNso-2" value="&lt;div style=&quot;font-family: Menlo, Monaco, &amp;quot;Courier New&amp;quot;, monospace; line-height: 18px; white-space: pre;&quot;&gt;&lt;div style=&quot;line-height: 18px;&quot;&gt;&lt;div style=&quot;line-height: 18px;&quot;&gt;&lt;font style=&quot;color: rgb(56, 58, 66);&quot;&gt;&lt;span&gt;TrackKLT&lt;/span&gt;::&lt;span&gt;feed_new_camera&lt;/span&gt;&lt;/font&gt;&lt;/div&gt;&lt;/div&gt;&lt;/div&gt;" style="rounded=0;whiteSpace=wrap;html=1;" parent="1" vertex="1">
          <mxGeometry x="205" y="360" width="210" height="70" as="geometry" />
        </mxCell>
        <mxCell id="XyP67wRyitUUYMVRdNso-3" value="" style="shape=curlyBracket;whiteSpace=wrap;html=1;rounded=1;labelPosition=left;verticalLabelPosition=middle;align=right;verticalAlign=middle;" parent="1" vertex="1">
          <mxGeometry x="415" y="335" width="20" height="120" as="geometry" />
        </mxCell>
        <mxCell id="XyP67wRyitUUYMVRdNso-4" value="&lt;ul&gt;&lt;li&gt;&lt;div style=&quot;font-family: Menlo, Monaco, &amp;quot;Courier New&amp;quot;, monospace; line-height: 18px; white-space: pre;&quot;&gt;&lt;span style=&quot;&quot;&gt;&lt;font&gt;Histogram equalize&lt;/font&gt;&lt;/span&gt;&lt;/div&gt;&lt;/li&gt;&lt;li&gt;&lt;div style=&quot;font-family: Menlo, Monaco, &amp;quot;Courier New&amp;quot;, monospace; line-height: 18px; white-space: pre;&quot;&gt;&lt;span style=&quot;&quot;&gt;&lt;font&gt;Extract image pyramid&lt;/font&gt;&lt;/span&gt;&lt;/div&gt;&lt;/li&gt;&lt;li&gt;&lt;div style=&quot;font-family: Menlo, Monaco, &amp;quot;Courier New&amp;quot;, monospace; line-height: 18px; white-space: pre;&quot;&gt;&lt;font&gt;&lt;span style=&quot;&quot;&gt;&lt;font&gt;Save to &lt;/font&gt;&lt;/span&gt;&lt;span style=&quot;background-color: rgb(250, 250, 250);&quot;&gt;img_curr and &lt;/span&gt;&lt;span style=&quot;background-color: rgb(250, 250, 250);&quot;&gt;img_pyramid_curr&lt;/span&gt;&lt;/font&gt;&lt;/div&gt;&lt;/li&gt;&lt;/ul&gt;" style="text;strokeColor=none;fillColor=none;html=1;whiteSpace=wrap;verticalAlign=middle;overflow=hidden;fontStyle=2" parent="1" vertex="1">
          <mxGeometry x="420" y="335" width="330" height="125" as="geometry" />
        </mxCell>
        <mxCell id="XyP67wRyitUUYMVRdNso-5" value="" style="swimlane;startSize=0;" parent="1" vertex="1">
          <mxGeometry x="100" y="290" width="670" height="620" as="geometry">
            <mxRectangle x="90" y="290" width="50" height="40" as="alternateBounds" />
          </mxGeometry>
        </mxCell>
        <mxCell id="XyP67wRyitUUYMVRdNso-8" value="&lt;div style=&quot;font-family: Menlo, Monaco, &amp;quot;Courier New&amp;quot;, monospace; line-height: 18px; white-space: pre;&quot;&gt;&lt;div style=&quot;line-height: 18px;&quot;&gt;&lt;div style=&quot;line-height: 18px;&quot;&gt;&lt;div style=&quot;line-height: 18px;&quot;&gt;&lt;span&gt;&lt;font style=&quot;color: light-dark(rgb(5, 5, 5), rgb(91, 139, 244));&quot;&gt;do_feature_propagate_update&lt;/font&gt;&lt;/span&gt;&lt;/div&gt;&lt;/div&gt;&lt;/div&gt;&lt;/div&gt;" style="rounded=0;whiteSpace=wrap;html=1;" parent="XyP67wRyitUUYMVRdNso-5" vertex="1">
          <mxGeometry x="105" y="230" width="210" height="70" as="geometry" />
        </mxCell>
        <mxCell id="KjIWWHUG4eaPtEWHL_3b-1" value="&lt;span style=&quot;color: rgb(5, 5, 5); font-family: Menlo, Monaco, &amp;quot;Courier New&amp;quot;, monospace; white-space-collapse: preserve;&quot;&gt;&lt;b&gt;&lt;i&gt;track_image_and_update&lt;/i&gt;&lt;/b&gt;&lt;/span&gt;" style="text;html=1;align=center;verticalAlign=middle;resizable=0;points=[];autosize=1;strokeColor=none;fillColor=none;" vertex="1" parent="1">
          <mxGeometry x="160" y="268" width="180" height="30" as="geometry" />
        </mxCell>
      </root>
    </mxGraphModel>
  </diagram>
</mxfile>
